<svg width="580" height="160" viewBox="0 0 580 160" fill="none" xmlns="http://www.w3.org/2000/svg">
<path d="M59.0122 165.234C42.3849 165.234 28.3556 159.37 16.9243 147.642C5.64142 135.765 0 121.587 0 105.109C0 88.6297 5.64142 74.5261 16.9243 62.7979C28.3556 50.9212 42.3849 44.9829 59.0122 44.9829C76.8272 44.9829 92.1927 51.812 105.109 65.4702L94.1969 77.0499C83.5079 65.7671 71.7054 60.1257 58.7895 60.1257C47.2098 60.1257 37.4115 64.5052 29.3948 73.2642C21.5265 81.8748 17.5923 92.4896 17.5923 105.109C17.5923 117.579 21.6007 128.194 29.6175 136.953C37.7827 145.563 47.8778 149.869 59.903 149.869C72.225 149.869 83.8048 144.079 94.6422 132.499L105.999 142.965C92.638 157.811 76.9757 165.234 59.0122 165.234Z" fill="white"/>
<path d="M135.904 162.562V0H153.051V162.562H135.904Z" fill="white"/>
<path d="M193.289 22.2688V3.34031H212.886V22.2688H193.289ZM194.403 162.562V47.4325H211.55V162.562H194.403Z" fill="white"/>
<path d="M261.587 112.012C262.774 123.74 267.154 133.093 274.725 140.07C282.445 146.9 291.575 150.314 302.116 150.314C315.922 150.314 328.022 144.895 338.414 134.058L349.103 143.633C336.187 158.034 320.376 165.234 301.67 165.234C285.488 165.234 271.83 159.667 260.696 148.533C249.71 137.25 244.217 122.775 244.217 105.109C244.217 88.3327 249.487 74.155 260.028 62.5752C270.568 50.847 283.707 44.9829 299.443 44.9829C315.922 44.9829 328.987 50.7728 338.637 62.3525C348.286 73.9323 353.111 88.4812 353.111 105.999C353.111 108.226 353.037 110.23 352.889 112.012H261.587ZM261.587 98.2052H335.742C334.702 87.0708 330.991 77.8664 324.607 70.592C318.372 63.1691 309.836 59.4576 298.998 59.4576C289.2 59.4576 280.812 63.0948 273.834 70.3693C266.857 77.6437 262.774 86.9224 261.587 98.2052Z" fill="white"/>
<path d="M383.129 162.562V47.4325H400.276V67.4743C409.332 52.48 422.47 44.9829 439.691 44.9829C453.35 44.9829 464.113 49.214 471.981 57.6761C479.849 65.9898 483.784 77.1241 483.784 91.0792V162.562H466.637V95.3103C466.637 84.4728 463.816 76.0107 458.174 69.9239C452.682 63.6886 444.887 60.571 434.792 60.571C424.846 60.571 416.606 63.9113 410.074 70.592C403.542 77.2726 400.276 85.9574 400.276 96.6464V162.562H383.129Z" fill="white"/>
<path d="M558.876 164.566C548.93 164.566 540.987 161.968 535.049 156.772C529.259 151.428 526.364 143.188 526.364 132.054V62.5752H510.33V47.4325H526.364V12.6932H543.511V47.4325H580.032V62.5752H543.511V129.827C543.511 142.594 549.969 148.978 562.885 148.978C568.526 148.978 574.093 147.642 579.586 144.97V159.667C573.351 162.933 566.448 164.566 558.876 164.566Z" fill="white"/>
</svg>
