<svg width="788" height="176" viewBox="0 0 788 176" fill="none" xmlns="http://www.w3.org/2000/svg">
<path d="M0 175.756V0H18.5124V72.9507C28.2895 56.7395 42.4743 48.6338 61.0668 48.6338C75.8125 48.6338 87.4328 53.2083 95.9277 62.3572C104.423 71.3457 108.67 83.3837 108.67 98.4715V175.756H90.1576V103.046C90.1576 91.3289 87.1123 82.1799 81.0216 75.5991C75.0913 68.8578 66.6766 65.4871 55.7775 65.4871C45.0387 65.4871 36.1432 69.0985 29.0909 76.3214C22.0385 83.5442 18.5124 92.9339 18.5124 104.49V175.756H0Z" fill="#F7F7F7"/>
<path d="M148.63 24.0761V3.61142H169.787V24.0761H148.63ZM149.833 175.756V51.2822H168.345V175.756H149.833Z" fill="#F7F7F7"/>
<path d="M252.419 178.163C243.443 178.163 234.307 176.558 225.011 173.348C215.875 169.978 207.861 165.483 200.969 159.866L210.345 146.624C224.45 157.217 238.795 162.514 253.38 162.514C260.914 162.514 267.084 160.668 271.893 156.976C276.701 153.285 279.105 148.389 279.105 142.29C279.105 136.672 276.461 132.339 271.172 129.289C266.043 126.239 258.349 123.27 248.091 120.381C241.84 118.615 236.872 117.01 233.185 115.566C229.499 114.121 225.331 112.115 220.683 109.546C216.035 106.818 212.589 103.447 210.345 99.4345C208.101 95.2613 206.979 90.3658 206.979 84.748C206.979 74.1545 210.906 65.5674 218.76 58.9866C226.774 52.4058 236.952 49.1153 249.293 49.1153C265.321 49.1153 280.227 53.6898 294.011 62.8388L285.597 76.8029C273.255 68.7775 260.994 64.7648 248.812 64.7648C241.6 64.7648 235.75 66.5304 231.262 70.0616C226.934 73.4323 224.77 77.8462 224.77 83.3035C224.77 85.5506 225.412 87.6372 226.694 89.5633C227.976 91.4894 229.419 93.0944 231.021 94.3785C232.624 95.6626 235.108 97.0269 238.474 98.4715C242.001 99.916 244.805 100.959 246.889 101.601C248.973 102.243 252.258 103.287 256.746 104.731C262.677 106.497 267.565 108.182 271.412 109.787C275.259 111.392 279.346 113.559 283.673 116.288C288.001 119.016 291.207 122.467 293.29 126.641C295.534 130.653 296.656 135.388 296.656 140.845C296.656 152.402 292.489 161.551 284.154 168.292C275.82 174.873 265.241 178.163 252.419 178.163Z" fill="#F7F7F7"/>
<path d="M370.292 177.923C359.554 177.923 350.979 175.114 344.567 169.496C338.316 163.718 335.191 154.81 335.191 142.772V67.654H317.881V51.2822H335.191V13.7234H353.703V51.2822H393.132V67.654H353.703V140.364C353.703 154.168 360.676 161.069 374.62 161.069C380.711 161.069 386.721 159.625 392.651 156.736V172.626C385.92 176.157 378.467 177.923 370.292 177.923Z" fill="#F7F7F7"/>
<path d="M525.519 159.625C513.017 172.305 497.55 178.645 479.118 178.645C460.686 178.645 445.299 172.305 432.957 159.625C420.776 146.945 414.686 131.616 414.686 113.639C414.686 95.8231 420.856 80.5748 433.198 67.8947C445.7 55.0541 461.167 48.6338 479.599 48.6338C498.031 48.6338 513.418 54.9739 525.76 67.654C538.101 80.3341 544.272 95.6626 544.272 113.639C544.272 131.456 538.021 146.784 525.519 159.625ZM479.599 162.032C492.902 162.032 503.801 157.378 512.296 148.068C520.951 138.759 525.279 127.283 525.279 113.639C525.279 100.157 520.791 88.6805 511.815 79.2105C503 69.7406 492.101 65.0056 479.118 65.0056C465.815 65.0056 454.916 69.7406 446.421 79.2105C437.926 88.52 433.679 99.9963 433.679 113.639C433.679 127.122 438.086 138.598 446.902 148.068C455.717 157.378 466.616 162.032 479.599 162.032Z" fill="#F7F7F7"/>
<path d="M577.807 175.756V51.2822H596.319V83.785C601.128 73.031 607.94 64.4438 616.755 58.0235C625.57 51.6032 635.668 48.6338 647.048 49.1153V69.0985H645.606C631.341 69.0985 619.56 74.0743 610.264 84.0258C600.967 93.9772 596.319 108.022 596.319 126.159V175.756H577.807Z" fill="#F7F7F7"/>
<path d="M694.477 215C685.501 215 676.685 212.913 668.03 208.74L674.281 194.054C680.212 197.103 686.703 198.628 693.755 198.628C699.365 198.628 704.093 196.863 707.94 193.331C711.787 189.961 715.553 183.942 719.24 175.274L662.741 51.2822H683.177L728.376 155.05L768.286 51.2822H788L735.829 179.849C730.54 192.529 724.689 201.517 718.278 206.814C711.867 212.271 703.933 215 694.477 215Z" fill="#F7F7F7"/>
</svg>
