<svg width="580" height="162" viewBox="0 0 580 162" fill="none" xmlns="http://www.w3.org/2000/svg">
<path d="M52.9138 165.855C42.0721 165.855 33.415 163.018 26.9423 157.344C20.6315 151.507 17.4761 142.509 17.4761 130.35V54.4745H0V37.9376H17.4761V0H36.1659V37.9376H75.9726V54.4745H36.1659V127.918C36.1659 141.861 43.2048 148.832 57.2828 148.832C63.4318 148.832 69.4999 147.373 75.4871 144.455V160.505C68.6908 164.072 61.1664 165.855 52.9138 165.855Z" fill="white"/>
<path d="M116.665 108.463C117.959 121.271 122.733 131.485 130.986 139.105C139.4 146.562 149.352 150.291 160.841 150.291C175.889 150.291 189.077 144.374 200.405 132.538L212.055 142.996C197.977 158.722 180.744 166.585 160.355 166.585C142.717 166.585 127.83 160.505 115.694 148.346C103.72 136.024 97.7324 120.217 97.7324 100.924C97.7324 82.6034 103.477 67.1204 114.966 54.4745C126.455 41.6665 140.775 35.2625 157.928 35.2625C175.889 35.2625 190.129 41.5854 200.647 54.2313C211.165 66.8772 216.424 82.7656 216.424 101.896C216.424 104.328 216.343 106.517 216.182 108.463H116.665ZM116.665 93.3848H197.492C196.359 81.2254 192.314 71.1735 185.356 63.2293C178.559 55.123 169.255 51.0698 157.442 51.0698C146.763 51.0698 137.62 55.0419 130.015 62.9861C122.409 70.9303 117.959 81.0632 116.665 93.3848Z" fill="white"/>
<path d="M286.522 166.342C273.739 166.342 262.735 162.856 253.512 155.885C244.288 148.913 239.677 139.186 239.677 126.702C239.677 113.57 244.531 103.437 254.24 96.3031C263.949 89.1696 276.975 85.6028 293.318 85.6028C306.264 85.6028 319.047 87.3862 331.669 90.9529V87.0619C331.669 76.0373 328.433 67.6067 321.96 61.7702C315.487 55.9336 306.345 53.0154 294.532 53.0154C282.234 53.0154 269.532 56.0147 256.424 62.0134L250.842 46.6924C266.376 39.5589 281.587 35.9921 296.474 35.9921C314.274 35.9921 327.785 40.6127 337.009 49.8539C345.747 58.6087 350.116 70.9303 350.116 86.8187V163.667H331.669V144.941C320.504 159.208 305.455 166.342 286.522 166.342ZM290.163 151.264C301.814 151.264 311.685 148.103 319.775 141.78C327.866 135.457 331.912 127.35 331.912 117.461V105.788C319.614 102.221 307.396 100.437 295.26 100.437C283.771 100.437 274.791 102.788 268.318 107.49C261.845 112.029 258.609 118.271 258.609 126.215C258.609 133.835 261.603 139.915 267.59 144.455C273.739 148.994 281.263 151.264 290.163 151.264Z" fill="white"/>
<path d="M389.705 163.667V37.9376H408.394V59.0951C418.912 43.2067 432.424 35.2625 448.929 35.2625C467.7 35.2625 481.13 43.612 489.221 60.311C500.063 43.612 514.788 35.2625 533.397 35.2625C547.799 35.2625 559.126 39.8021 567.378 48.8811C575.793 57.9602 580 70.2818 580 85.846V163.667H561.31V90.2234C561.31 78.0639 558.398 68.7416 552.572 62.2566C546.909 55.6094 538.98 52.2858 528.785 52.2858C518.915 52.2858 510.662 55.7715 504.027 62.7429C497.393 69.7144 494.076 79.1988 494.076 91.1961V163.667H475.629V89.737C475.629 78.0639 472.716 68.9037 466.891 62.2566C461.227 55.6094 453.379 52.2858 443.346 52.2858C433.314 52.2858 424.98 56.0147 418.346 63.4725C411.711 70.9303 408.394 80.4147 408.394 91.9257V163.667H389.705Z" fill="white"/>
</svg>
