<svg width="32" height="33" viewBox="0 0 32 33" fill="none" xmlns="http://www.w3.org/2000/svg">
<path d="M16.9707 6.46875H14.9707V17.6007L22.1965 21.0349L23.0551 19.2286L16.9707 16.3368V6.46875Z" fill="#9297A9"/>
<path d="M16 1.5C7.71575 1.5 1 8.21575 1 16.5C1 24.7843 7.71575 31.5 16 31.5C24.2843 31.5 31 24.7843 31 16.5C31 8.21575 24.2843 1.5 16 1.5ZM16 29.5C8.82031 29.5 3 23.6797 3 16.5C3 9.32031 8.82031 3.5 16 3.5C23.1797 3.5 29 9.32031 29 16.5C29 23.6797 23.1797 29.5 16 29.5Z" fill="#9297A9"/>
</svg>
