<svg width="72" height="72" viewBox="0 0 72 72" fill="none" xmlns="http://www.w3.org/2000/svg">
<path d="M35.7638 61.8117C50.1502 61.8117 61.8127 50.1492 61.8127 35.7628C61.8127 21.3764 50.1502 9.71387 35.7638 9.71387C21.3773 9.71387 9.71484 21.3764 9.71484 35.7628C9.71484 50.1492 21.3773 61.8117 35.7638 61.8117Z" stroke="#2F3343" stroke-width="1.78643" stroke-miterlimit="10"/>
<path d="M35.8246 13.5125C37.8829 13.5125 39.5516 11.8439 39.5516 9.78554C39.5516 7.72721 37.8829 6.05859 35.8246 6.05859C33.7663 6.05859 32.0977 7.72721 32.0977 9.78554C32.0977 11.8439 33.7663 13.5125 35.8246 13.5125Z" fill="white" stroke="#2F3343" stroke-width="1.78643" stroke-miterlimit="10"/>
<path d="M35.8246 65.5931C37.8829 65.5931 39.5516 63.9244 39.5516 61.8661C39.5516 59.8078 37.8829 58.1392 35.8246 58.1392C33.7663 58.1392 32.0977 59.8078 32.0977 61.8661C32.0977 63.9244 33.7663 65.5931 35.8246 65.5931Z" fill="white" stroke="#2F3343" stroke-width="1.78643" stroke-miterlimit="10"/>
<path d="M61.8676 39.5525C63.9259 39.5525 65.5945 37.8839 65.5945 35.8256C65.5945 33.7672 63.9259 32.0986 61.8676 32.0986C59.8092 32.0986 58.1406 33.7672 58.1406 35.8256C58.1406 37.8839 59.8092 39.5525 61.8676 39.5525Z" fill="white" stroke="#2F3343" stroke-width="1.78643" stroke-miterlimit="10"/>
<path d="M9.78554 39.5525C11.8439 39.5525 13.5125 37.8839 13.5125 35.8256C13.5125 33.7672 11.8439 32.0986 9.78554 32.0986C7.72721 32.0986 6.05859 33.7672 6.05859 35.8256C6.05859 37.8839 7.72721 39.5525 9.78554 39.5525Z" fill="white" stroke="#2F3343" stroke-width="1.78643" stroke-miterlimit="10"/>
<path d="M54.2426 57.9695C56.3009 57.9695 57.9695 56.3009 57.9695 54.2426C57.9695 52.1842 56.3009 50.5156 54.2426 50.5156C52.1842 50.5156 50.5156 52.1842 50.5156 54.2426C50.5156 56.3009 52.1842 57.9695 54.2426 57.9695Z" fill="white" stroke="#2F3343" stroke-width="1.78643" stroke-miterlimit="10"/>
<path d="M17.4105 21.1355C19.4689 21.1355 21.1375 19.4669 21.1375 17.4086C21.1375 15.3503 19.4689 13.6816 17.4105 13.6816C15.3522 13.6816 13.6836 15.3503 13.6836 17.4086C13.6836 19.4669 15.3522 21.1355 17.4105 21.1355Z" fill="white" stroke="#2F3343" stroke-width="1.78643" stroke-miterlimit="10"/>
<path d="M17.4105 57.9695C19.4689 57.9695 21.1375 56.3009 21.1375 54.2426C21.1375 52.1842 19.4689 50.5156 17.4105 50.5156C15.3522 50.5156 13.6836 52.1842 13.6836 54.2426C13.6836 56.3009 15.3522 57.9695 17.4105 57.9695Z" fill="white" stroke="#2F3343" stroke-width="1.78643" stroke-miterlimit="10"/>
<path d="M54.2426 21.1355C56.3009 21.1355 57.9695 19.4669 57.9695 17.4086C57.9695 15.3503 56.3009 13.6816 54.2426 13.6816C52.1842 13.6816 50.5156 15.3503 50.5156 17.4086C50.5156 19.4669 52.1842 21.1355 54.2426 21.1355Z" fill="white" stroke="#2F3343" stroke-width="1.78643" stroke-miterlimit="10"/>
<path d="M43.3388 38.2854C45.9184 38.2854 48.0095 36.1942 48.0095 33.6146C48.0095 31.035 45.9184 28.9438 43.3388 28.9438C40.7592 28.9438 38.668 31.035 38.668 33.6146C38.668 36.1942 40.7592 38.2854 43.3388 38.2854Z" fill="#D3D5DD"/>
<path d="M51.6152 46.7557C51.6152 46.8767 51.6152 46.9977 51.6152 47.1187H35.0859C35.0859 46.9977 35.0859 46.8767 35.0859 46.7557C35.0859 42.1818 38.7887 38.479 43.3627 38.479C47.9124 38.479 51.6152 42.1818 51.6152 46.7557Z" fill="#D3D5DD"/>
<path d="M32.0678 33.2371C34.8947 33.2371 37.1864 30.9455 37.1864 28.1186C37.1864 25.2917 34.8947 23 32.0678 23C29.2409 23 26.9492 25.2917 26.9492 28.1186C26.9492 30.9455 29.2409 33.2371 32.0678 33.2371Z" stroke="#2F3343" stroke-width="1.78643" stroke-miterlimit="10"/>
<path d="M41.1404 42.5458C41.1404 42.6784 41.1404 42.811 41.1404 42.9436H23C23 42.811 23 42.6784 23 42.5458C23 37.5333 27.0577 33.4756 32.0702 33.4756C37.0827 33.4756 41.1404 37.5333 41.1404 42.5458Z" stroke="#2F3343" stroke-width="1.78643" stroke-miterlimit="10"/>
</svg>
