<svg width="80" height="80" viewBox="0 0 80 80" fill="none" xmlns="http://www.w3.org/2000/svg">
<path fill-rule="evenodd" clip-rule="evenodd" d="M31.05 16H48.95V20.95H68V51.95H61.5374C61.1342 53.0487 60.4161 53.9955 59.4925 54.6809C60.5227 55.1249 61.47 55.7628 62.2786 56.5714C63.9571 58.2498 64.9 60.5263 64.9 62.9V63.85H48.9L47 63.85L32.9 63.85L31 63.85H15V62.9C15 60.5263 15.9429 58.2498 17.6214 56.5714C18.43 55.7628 19.3773 55.1249 20.4075 54.6809C19.4839 53.9955 18.7658 53.0487 18.3626 51.95H12V20.95H31.05V16ZM47.05 20.95H32.95V17.9H47.05V20.95ZM31.05 22.85H13.9V50.05H18.0019C18.0006 50.0001 18 49.9501 18 49.9C18 46.6139 20.6639 43.95 23.95 43.95C27.2361 43.95 29.9 46.6139 29.9 49.9C29.9 49.9501 29.8994 50.0001 29.8981 50.05H34.0019C34.0006 50.0001 34 49.9501 34 49.9C34 46.6139 36.6639 43.95 39.95 43.95C43.2361 43.95 45.9 46.6139 45.9 49.9C45.9 49.9501 45.8994 50.0001 45.8981 50.05H50.0019C50.0006 50.0001 50 49.9501 50 49.9C50 46.6139 52.6639 43.95 55.95 43.95C59.2361 43.95 61.9 46.6139 61.9 49.9C61.9 49.9501 61.8994 50.0001 61.8981 50.05H66.1V22.85H48.95V22.9H31.05V22.85ZM50.3626 51.95H45.5374C45.1342 53.0487 44.4161 53.9955 43.4925 54.6809C44.5227 55.1249 45.47 55.7628 46.2786 56.5714C46.9625 57.2553 47.5243 58.0386 47.95 58.8872C48.3757 58.0386 48.9375 57.2553 49.6214 56.5714C50.43 55.7628 51.3773 55.1249 52.4075 54.6809C51.4839 53.9955 50.7658 53.0487 50.3626 51.95ZM34.3626 51.95H29.5374C29.1342 53.0487 28.4161 53.9955 27.4925 54.6809C28.5227 55.1249 29.47 55.7628 30.2786 56.5714C30.9625 57.2553 31.5243 58.0386 31.95 58.8872C32.3757 58.0386 32.9375 57.2553 33.6214 56.5714C34.43 55.7628 35.3773 55.1249 36.4075 54.6809C35.4839 53.9955 34.7658 53.0487 34.3626 51.95ZM19.9 49.9C19.9 47.6632 21.7132 45.85 23.95 45.85C26.1868 45.85 28 47.6632 28 49.9C28 52.1367 26.1868 53.95 23.95 53.95C21.7132 53.95 19.9 52.1367 19.9 49.9ZM55.95 55.85C54.0802 55.85 52.287 56.5928 50.9649 57.9149C49.8687 59.0111 49.1708 60.431 48.9643 61.95H62.9357C62.7292 60.431 62.0313 59.0111 60.9351 57.9149C59.613 56.5928 57.8198 55.85 55.95 55.85ZM55.95 53.95C58.1868 53.95 60 52.1367 60 49.9C60 47.6632 58.1868 45.85 55.95 45.85C53.7132 45.85 51.9 47.6632 51.9 49.9C51.9 52.1367 53.7132 53.95 55.95 53.95ZM39.95 55.85C38.0802 55.85 36.287 56.5928 34.9649 57.9149C33.8687 59.0111 33.1708 60.431 32.9643 61.95H46.9357C46.7292 60.431 46.0313 59.0111 44.9351 57.9149C43.613 56.5928 41.8198 55.85 39.95 55.85ZM39.95 53.95C42.1868 53.95 44 52.1367 44 49.9C44 47.6632 42.1868 45.85 39.95 45.85C37.7132 45.85 35.9 47.6632 35.9 49.9C35.9 52.1367 37.7132 53.95 39.95 53.95ZM18.9649 57.9149C20.287 56.5928 22.0802 55.85 23.95 55.85C25.8198 55.85 27.613 56.5928 28.9351 57.9149C30.0313 59.0111 30.7292 60.431 30.9357 61.95H16.9643C17.1708 60.431 17.8687 59.0111 18.9649 57.9149ZM32 32.9H48V31H32V32.9ZM52 37.9H28V36H52V37.9Z" fill="#9297A9"/>
</svg>
