<svg width="80" height="80" viewBox="0 0 80 80" fill="none" xmlns="http://www.w3.org/2000/svg">
<path fill-rule="evenodd" clip-rule="evenodd" d="M46.1028 15.8797C52.6804 17.6421 58.1779 21.8605 61.5828 27.7579C64.6698 33.1047 65.7122 39.3816 64.5183 45.4318C63.3354 51.4242 60.0513 56.7906 55.2708 60.5426C54.8379 60.8824 54.212 60.8069 53.8724 60.3741C53.5326 59.9413 53.6081 59.3152 54.0409 58.9757C60.6624 53.7786 63.795 45.5142 62.7981 37.5251C62.6638 38.0977 62.3828 38.6143 61.9746 39.0226L61.3301 39.6672C61.1414 39.856 60.8871 39.9589 60.6258 39.9589C60.554 39.9589 60.4818 39.9512 60.4101 39.9353C60.078 39.8616 59.8062 39.6233 59.6899 39.3034L58.3357 35.5797C58.3148 35.5222 58.2842 35.4698 58.2447 35.4235L57.0176 33.9868C56.921 33.8737 56.7802 33.8088 56.6315 33.8088H56.1559L56.2088 33.8884C56.4723 34.2836 56.4201 34.8094 56.0844 35.1452C54.7704 36.4591 53.1542 37.4935 51.4106 38.1366L50.66 38.4133C50.1904 38.587 49.6643 38.384 49.4325 37.9397L46.8549 33.0024C46.7806 32.8601 46.7418 32.7019 46.7418 32.5414V31.8434L45.351 30.5159L43.8844 30.0004C43.3654 29.818 43.0926 29.2495 43.275 28.7305C43.4573 28.2116 44.0256 27.9384 44.5449 28.1211L46.2138 28.7076C46.3472 28.7545 46.4691 28.8292 46.5714 28.9268L48.4255 30.6968C48.6224 30.8845 48.7338 31.145 48.7338 31.4171V32.297L50.7927 36.2408C51.988 35.7904 53.1106 35.1225 54.0812 34.2879L53.9292 34.0597C53.6334 33.6162 53.6059 33.0486 53.8575 32.5787C54.109 32.1088 54.5963 31.8168 55.1295 31.8168H56.6315C57.3637 31.8168 58.0564 32.136 58.5321 32.6929L59.7592 34.1296C59.9543 34.3578 60.1053 34.6167 60.2078 34.899L60.8957 36.7908L60.8961 36.7762L60.8963 36.7667C60.9086 36.0285 61.2315 35.3232 61.7827 34.8314L62.2049 34.4549C61.6877 32.4933 60.9096 30.5754 59.8578 28.7537C55.9091 21.9143 49.0181 17.8098 41.6975 17.1134L38.8324 20.7072C38.7155 20.8538 38.5598 20.9643 38.383 21.0263L31.938 23.2858L30.4764 26.8288L31.962 28.91C32.7767 27.595 34.2303 26.7596 35.8177 26.7596H36.384C36.9339 26.7596 37.38 27.2056 37.38 27.7556C37.38 28.3055 36.9339 28.7516 36.384 28.7516H35.8177C34.7485 28.7516 33.7875 29.4277 33.4263 30.4341L33.4018 30.5024C33.8776 30.449 34.3585 30.4317 34.7936 30.4163C35.0706 30.4065 35.3325 30.3972 35.5395 30.3799C35.9039 30.3489 37.7509 30.2568 38.3073 31.4338C38.406 31.6423 38.5001 31.9763 38.3961 32.3925L38.4153 32.4053C38.7239 32.611 39.2253 32.9452 39.59 33.1202C39.698 32.8569 39.8824 32.693 39.9446 32.6431C40.1803 32.4543 40.4977 32.3229 41.0064 32.2036C41.1962 32.159 41.3952 32.1713 41.5786 32.239C41.7975 32.3198 42.1293 32.4096 42.4808 32.5048L42.4815 32.505C43.5265 32.788 44.7108 33.1088 45.3391 33.7745C46.0381 34.5155 46.4488 35.5784 46.8111 36.5162L46.8113 36.5166C46.9483 36.871 47.0776 37.2058 47.2071 37.4825C47.2784 37.6346 47.3486 37.7913 47.4198 37.9499L47.424 37.9593L47.424 37.9594C47.7887 38.7727 48.1657 39.6135 48.782 40.0164C48.9215 40.1076 49.3595 40.1749 49.6501 40.2195L49.6501 40.2195L49.6502 40.2195L49.6514 40.2197C50.3871 40.3325 51.3028 40.4729 51.6631 41.3086C52.0306 42.1609 51.4368 43.0208 51.2415 43.3035L51.2414 43.3036C50.7953 43.9495 50.2181 44.487 49.6599 45.0068C48.3722 46.206 47.8396 46.8344 48.1441 47.8168C48.506 48.9844 48.8476 50.0872 47.5209 51.5308C47.4425 51.6161 47.3695 51.694 47.301 51.7668L47.3001 51.7678L47.3001 51.7678L47.3 51.7678C46.9072 52.1862 46.7885 52.3127 46.625 52.8275C46.4099 53.5054 46.0777 53.8795 45.8107 54.1802L45.8106 54.1802L45.8103 54.1806L45.81 54.1809C45.6774 54.3304 45.5726 54.4484 45.4836 54.6007C45.4256 54.7 45.3951 54.8519 45.3565 55.0441L45.3562 55.0458C45.2785 55.4339 45.172 55.9654 44.7397 56.4961C44.0514 57.3413 42.5531 58.6744 41.1172 58.6745C40.8222 58.6746 40.5301 58.6184 40.2479 58.4901C39.7091 58.245 39.0378 57.6364 38.1422 54.9789C38.031 54.6487 37.8613 54.275 37.6816 53.8792L37.6816 53.8791L37.6812 53.8783C37.1274 52.6585 36.4996 51.2757 36.95 49.8817C36.976 49.8008 37.0019 49.7219 37.0273 49.6446C37.3237 48.7412 37.459 48.3289 37.1483 47.5844C37.0994 47.4672 36.9406 47.2925 36.7871 47.1236L36.787 47.1236C36.4783 46.7837 36.0939 46.3607 35.9452 45.7486C35.8524 45.366 35.8545 45.0309 35.8564 44.7616C35.859 44.3384 35.8468 44.3147 35.7135 44.1899C35.4396 43.9335 35.169 43.9547 34.3151 44.1659C34.0054 44.2426 33.6854 44.3218 33.3421 44.3621C31.2352 44.6099 29.2611 43.763 28.0637 42.097C26.8254 40.374 26.6366 38.0748 27.5711 36.0967C27.9962 35.1974 28.5944 34.5241 29.1731 33.8732C29.2836 33.7489 29.3952 33.6234 29.5067 33.4949C29.6348 33.3473 29.8201 33.0843 30.0165 32.8056L30.0165 32.8055L30.0166 32.8055L30.0168 32.8052C30.4647 32.1695 30.8397 31.6575 31.225 31.306L28.5348 27.5375C28.3354 27.2582 28.2939 26.8963 28.4247 26.579L30.2667 22.1137C30.3748 21.8513 30.59 21.6475 30.8579 21.5537L37.4535 19.2415L39.2321 17.0103C35.3235 17.0491 31.3734 18.0618 27.7538 20.1516C26.7673 20.7211 25.839 21.353 24.9684 22.0374C25.7723 22.5383 26.415 23.2816 26.7829 24.1744C27.4067 25.6881 27.0879 27.4395 25.971 28.6366L24.878 29.8078L22.1663 34.5418C22.0951 34.6661 21.9979 34.7736 21.8814 34.8569L20.132 36.1078L21.3533 37.8992C21.5447 38.1799 21.5798 38.5386 21.4466 38.851C21.3133 39.1632 21.0301 39.3864 20.6951 39.4425C20.6868 39.4438 19.8509 39.5838 19.0106 39.708C18.1246 39.8389 17.588 39.9111 17.2255 39.9112C16.8311 39.9112 16.6432 39.8256 16.4358 39.6367C16.3637 39.5709 16.3021 39.495 16.2524 39.4123C16.2123 39.3706 16.147 39.3072 16.0468 39.2139C15.9956 40.1171 15.9964 41.0251 16.0503 41.9335L18.59 41.1085C18.9005 41.0077 19.2407 41.0654 19.5006 41.263L23.8384 44.5611L26.0866 45.0004C26.9582 45.1708 27.7158 45.708 28.1651 46.4741C28.6145 47.2403 28.7134 48.1636 28.4366 49.0074C28.3629 49.232 28.3625 49.4695 28.4356 49.6942L28.7511 50.6653C29.2788 52.2904 28.3863 54.0419 26.7614 54.5698L26.3314 54.7095L25.439 59.3677C31.7247 64.0858 40.1379 65.443 47.9094 62.456C48.4227 62.2583 48.999 62.5148 49.1964 63.0283C49.3939 63.5417 49.1377 64.118 48.6242 64.3153C45.7045 65.4374 42.6157 65.9998 39.5214 65.9998C36.6754 65.9998 33.8251 65.5244 31.0947 64.5717C25.3347 62.5618 20.4805 58.5415 17.4264 53.2515C14.0217 47.3542 13.1172 40.4839 14.8796 33.9064C16.642 27.3289 20.8605 21.8312 26.7577 18.4265C32.6551 15.0217 39.5254 14.1172 46.1028 15.8797ZM22.8169 46.287L18.7097 43.1642L16.2579 43.9607C16.6773 46.8052 17.6287 49.6182 19.1516 52.2556C20.3998 54.4176 21.9375 56.3122 23.689 57.9152L24.4856 53.7566C24.5539 53.4002 24.8107 53.109 25.156 52.9968L26.1458 52.6752C26.7261 52.4866 27.045 51.861 26.8564 51.2806L26.5409 50.3096C26.3364 49.6804 26.3374 49.0153 26.5436 48.3865C26.6438 48.0806 26.6095 47.7593 26.4467 47.4817C26.2838 47.204 26.0202 47.0171 25.7043 46.9554L23.2288 46.4717C23.0792 46.4425 22.9383 46.3793 22.8169 46.287ZM23.3429 28.5329L24.5146 27.2776C25.1013 26.6487 25.2689 25.7285 24.9412 24.9335C24.6499 24.2265 24.0536 23.6845 23.3271 23.4557C19.5328 27.0561 17.1202 31.7728 16.3113 36.7795C16.8018 37.2087 17.1308 37.5025 17.3676 37.7224C17.4308 37.7812 17.492 37.838 17.5504 37.8941C17.8546 37.861 18.3122 37.7984 18.822 37.7225L17.9375 36.4252C17.6325 35.9777 17.7407 35.3688 18.1812 35.0539L20.546 33.3629L23.2068 28.7175C23.2449 28.651 23.2906 28.589 23.3429 28.5329ZM34.864 32.4072H34.8639H34.8638C34.111 32.434 33.08 32.4705 32.6358 32.7205C32.4177 32.8561 31.9157 33.5687 31.6458 33.9518L31.6454 33.9524C31.4194 34.2734 31.2056 34.5766 31.0114 34.8006C30.8996 34.9293 30.7878 35.0552 30.6769 35.1799L30.6768 35.1801L30.6622 35.1965C30.1327 35.7922 29.6754 36.3069 29.3727 36.9474C28.7473 38.2712 28.8658 39.799 29.6817 40.9342C30.4616 42.0195 31.7109 42.5475 33.1102 42.3835C33.3276 42.358 33.5727 42.2974 33.8321 42.2333L33.8371 42.2321C34.6877 42.0217 35.9731 41.7039 37.0754 42.7356C37.8571 43.4677 37.852 44.2541 37.8486 44.7745V44.7746C37.8473 44.9676 37.8463 45.1342 37.8813 45.2786C37.9101 45.3969 38.0969 45.6025 38.2617 45.7839L38.263 45.7853C38.5174 46.0654 38.8057 46.3829 38.9869 46.8172C39.5829 48.2456 39.2612 49.2267 38.9203 50.2656C38.8958 50.34 38.8709 50.4161 38.8457 50.494C38.6324 51.1543 39.0709 52.1205 39.4952 53.0549L39.4954 53.0554C39.6878 53.479 39.8867 53.9171 40.0301 54.3429C40.6118 56.0694 40.9968 56.5684 41.1031 56.6823C41.1962 56.6879 41.4695 56.6473 41.9377 56.35C42.4414 56.03 42.9321 55.561 43.1952 55.2381C43.3107 55.0963 43.3442 54.9485 43.4033 54.6542C43.4631 54.3551 43.5378 53.9827 43.7637 53.5961C43.9523 53.2733 44.1568 53.0431 44.3209 52.8582L44.321 52.8581C44.5263 52.627 44.6393 52.4997 44.7266 52.2249C45.027 51.2787 45.3898 50.8924 45.8492 50.4033L45.8493 50.4033C45.9131 50.3353 45.9813 50.2628 46.0544 50.1832C46.5908 49.5997 46.5752 49.4834 46.2416 48.4068C45.5349 46.1268 47.0695 44.6976 48.3025 43.5493L48.3034 43.5486C48.7871 43.0981 49.2448 42.6718 49.5664 42.2232C49.4901 42.2107 49.415 42.1991 49.3494 42.1891L49.3487 42.189C48.8068 42.1058 48.1928 42.0116 47.6919 41.6842C46.5868 40.9618 46.0658 39.7998 45.6062 38.7746L45.5911 38.7408L45.5909 38.7404L45.5907 38.7399C45.5279 38.5999 45.4659 38.4618 45.4029 38.3273C45.2442 37.9882 45.1028 37.6224 44.9531 37.2348L44.9527 37.2337C44.6564 36.4671 44.3208 35.5984 43.8902 35.1419C43.6476 34.8849 42.5498 34.5877 41.96 34.428L41.9473 34.4246C41.7802 34.3793 41.6172 34.3351 41.4619 34.2907C41.3914 34.424 41.2965 34.5346 41.1953 34.6171C41.185 34.6266 41.1751 34.6368 41.165 34.6472L41.1649 34.6473L41.1531 34.6594L41.1515 34.6611C40.9709 34.845 40.5517 35.2719 39.8001 35.2231C38.9711 35.1703 38.0887 34.5821 37.3103 34.0632L37.3102 34.0631C37.0349 33.8796 36.7748 33.7061 36.588 33.6061C36.3123 33.4586 36.1217 33.1902 36.0738 32.8811C36.0465 32.7054 36.0669 32.5283 36.1298 32.3669C35.989 32.3559 35.8398 32.3539 35.7054 32.3651C35.4508 32.3864 35.1658 32.3966 34.864 32.4072H34.864ZM51.2532 60.8579C51.7294 60.582 52.3387 60.744 52.6146 61.2195C52.8905 61.6954 52.7286 62.3049 52.2529 62.5809L52.2146 62.603C52.0573 62.6942 51.8852 62.7378 51.7156 62.7378C51.3722 62.7378 51.038 62.5599 50.8532 62.2414C50.5773 61.7656 50.7392 61.1561 51.2149 60.8801L51.2532 60.8579ZM54.8417 49.2924L54.3624 47.486C54.2577 47.0916 53.9231 46.8009 53.5179 46.7525C53.1123 46.7051 52.719 46.9079 52.5242 47.2666C52.4151 47.4678 52.3168 47.681 52.2217 47.8871C52.0619 48.2338 51.8965 48.5924 51.7245 48.7903C51.6279 48.9015 51.3796 49.0213 51.1398 49.1371C50.5663 49.4138 49.7809 49.7928 49.4809 50.7492C49.2946 51.3425 49.3641 51.8119 49.4149 52.1545C49.4589 52.4517 49.469 52.5547 49.3894 52.7415L49.3795 52.7647C49.0624 53.5087 48.4725 54.8938 49.2997 56.0713C49.8899 56.9116 50.5104 57.1276 50.9927 57.1276C51.0868 57.1279 51.1758 57.1196 51.2582 57.1062C52.2742 56.9402 53.038 55.8833 53.6622 53.7799L54.8338 49.8313C54.8859 49.6557 54.8887 49.4693 54.8417 49.2924ZM51.7526 53.2133C51.4344 54.2857 51.1529 54.7863 50.9905 55.0082C50.9717 54.9843 50.9514 54.9572 50.9297 54.9263C50.7394 54.6552 51.0238 53.9875 51.212 53.5456L51.2121 53.5454L51.2221 53.5221C51.5255 52.81 51.4447 52.263 51.3856 51.8634L51.3855 51.8626C51.3476 51.6067 51.334 51.4967 51.3815 51.3456C51.4206 51.2214 51.654 51.1009 52.0056 50.9311L52.0091 50.9294C52.164 50.8546 52.3344 50.7723 52.5063 50.6728L51.7526 53.2133ZM40.8299 26.8151L40.8971 26.8386C41.4162 27.0206 41.6894 27.589 41.5073 28.1082C41.3635 28.5181 40.9786 28.7748 40.5674 28.7748C40.4579 28.7748 40.3468 28.7566 40.2377 28.7184L40.1706 28.6949C39.6515 28.5128 39.3783 27.9445 39.5604 27.4253C39.7425 26.9063 40.3112 26.6335 40.8299 26.8151Z" fill="#9297A9"/>
</svg>
