<svg width="80" height="80" viewBox="0 0 80 80" fill="none" xmlns="http://www.w3.org/2000/svg">
<path fill-rule="evenodd" clip-rule="evenodd" d="M39.551 15.4876C39.1171 15.5102 38.7059 15.2478 38.5409 14.8479C38.3545 14.3966 38.5134 13.8572 38.9235 13.5863C39.291 13.3433 39.7811 13.3583 40.1325 13.6259C40.477 13.888 40.6218 14.3566 40.4887 14.7678C40.3561 15.1758 39.9796 15.4654 39.551 15.4876ZM45.1089 25.5286C45.375 25.5286 45.641 25.4271 45.844 25.2241L52.9429 18.1252C53.3489 17.7192 53.3489 17.0613 52.9429 16.6553C52.537 16.2494 51.8791 16.2494 51.4731 16.6553L44.3742 23.7542C43.9682 24.1602 43.9682 24.8181 44.3742 25.2241C44.5772 25.4271 44.8432 25.5286 45.1089 25.5286ZM65.7841 35.6036L56.9133 24.0802C56.585 23.654 55.9861 23.5488 55.5321 23.8376L49.8047 27.48H42.335C42.2384 27.48 42.1421 27.5006 42.0491 27.5277L36.2575 29.1949L30.248 27.5512L24.4086 23.8376C23.9622 23.5537 23.3743 23.6499 23.0423 24.0616L13.2305 36.215C12.8779 36.6517 12.9362 37.2893 13.3616 37.6553L18.5042 42.081L23.1179 48.2984C21.7686 49.7359 21.7948 52.0031 23.1988 53.4074C23.8211 54.0294 24.6124 54.3807 25.4264 54.4624C25.3981 54.6468 25.3835 54.834 25.3835 55.0241C25.3835 56.005 25.7656 56.9274 26.4591 57.6209C27.153 58.3147 28.0753 58.6969 29.0563 58.6969C29.0697 58.6969 29.0826 58.696 29.0955 58.6956L29.0948 58.7257L29.0942 58.7467C29.094 58.7546 29.0939 58.7625 29.0939 58.7704C29.0939 59.7514 29.476 60.6738 30.1695 61.3676C30.8634 62.0611 31.7857 62.4432 32.7667 62.4432C32.9604 62.4432 33.1521 62.4275 33.3401 62.3983C33.4197 63.2152 33.7719 64.0101 34.3963 64.6344C35.112 65.3506 36.0525 65.7084 36.993 65.7084C37.9336 65.7084 38.8741 65.3506 39.5902 64.6344L40.1519 64.0728L40.3876 64.2628C41.0977 64.9507 42.0196 65.2944 42.9416 65.2944C43.8821 65.2944 44.8226 64.9365 45.5383 64.2204C46.269 63.4897 46.6269 62.5253 46.6119 61.5658C47.5711 61.5803 48.5359 61.2229 49.2665 60.4926C49.9964 59.7623 50.3543 58.7988 50.3401 57.8396C51.3393 57.8554 52.2871 57.4716 52.9943 56.7644C53.725 56.0338 54.0828 55.0694 54.0679 54.1098C55.0278 54.1244 55.9918 53.7669 56.7225 53.0362C57.9695 51.7892 58.1301 49.8616 57.2053 48.4387L60.574 41.3835L65.6386 37.0253C66.0571 36.665 66.121 36.0407 65.7841 35.6036ZM24.0762 26.0894L28.2751 28.7594L19.141 39.8873L15.4808 36.737L24.0762 26.0894ZM24.6686 49.6829L25.9359 48.4156C25.9743 48.3772 26.0147 48.3408 26.056 48.3069C26.3038 48.1047 26.6039 47.9842 26.9217 47.9555C26.9276 47.9549 26.9337 47.9548 26.9397 47.9546L26.9488 47.9543C26.9941 47.9506 27.0394 47.9482 27.0851 47.9486C27.5193 47.9547 27.9229 48.1322 28.2221 48.448C28.8092 49.0687 28.7777 50.0828 28.1518 50.7088L26.9229 51.9376C26.3014 52.5591 25.2901 52.5591 24.6686 51.9376C24.0471 51.3157 24.0471 50.3044 24.6686 49.6829ZM27.929 56.151C27.6277 55.8502 27.4619 55.4499 27.4619 55.0241C27.4619 54.5983 27.6277 54.198 27.929 53.8967L30.3862 51.4394C30.8569 50.9688 31.5969 50.8398 32.1986 51.1265C32.8189 51.4221 33.1678 52.0953 33.0768 52.7726C33.0283 53.1341 32.8601 53.4746 32.6021 53.733L30.1837 56.151C29.8824 56.4523 29.4821 56.618 29.0563 56.618C28.6305 56.618 28.2302 56.4523 27.929 56.151ZM31.6393 59.8974C31.3381 59.5965 31.1723 59.1962 31.1723 58.7704C31.1723 58.3447 31.3381 57.9443 31.6393 57.6431L34.0962 55.1858C34.5997 54.6828 35.4072 54.5744 36.0234 54.9331C36.5863 55.2606 36.881 55.9035 36.7844 56.5441C36.7314 56.8962 36.564 57.2274 36.3121 57.4793L33.894 59.8974C33.5928 60.1986 33.1925 60.3644 32.7667 60.3644C32.3409 60.3644 31.9406 60.1986 31.6393 59.8974ZM35.8657 63.1646C35.2442 62.5431 35.2442 61.5318 35.8657 60.9103L37.133 59.6431C37.1714 59.6046 37.2114 59.5686 37.2526 59.5347C37.2539 59.5339 37.2547 59.5331 37.2555 59.5323C37.4617 59.3649 37.7039 59.2528 37.9623 59.2039L37.9805 59.2015C38.025 59.1934 38.0703 59.1869 38.1155 59.1829C38.1259 59.182 38.1363 59.1816 38.1467 59.1812L38.147 59.1812C38.1548 59.1809 38.1626 59.1806 38.1705 59.1801L38.1849 59.1793C38.2173 59.1775 38.2494 59.1757 38.2821 59.176C38.716 59.1821 39.12 59.3592 39.4192 59.6754C39.456 59.7142 39.4904 59.7547 39.5219 59.7963C39.9999 60.421 39.9356 61.349 39.3424 61.9426L38.12 63.165C37.4985 63.7865 36.4872 63.7861 35.8657 63.1646ZM55.2526 51.5664C54.6311 52.1883 53.6198 52.1879 52.9983 51.5664C52.9757 51.5438 52.9518 51.5227 52.9276 51.5029L46.2452 44.7501C45.8412 44.3421 45.1833 44.3389 44.7753 44.7429C44.3673 45.1464 44.3641 45.8043 44.7676 46.2123L51.5224 53.0375L51.5249 53.0399C52.1464 53.6614 52.1464 54.6731 51.5249 55.2946C51.2236 55.5958 50.8233 55.7616 50.3975 55.7616C49.9713 55.7616 49.571 55.5958 49.2702 55.2946L44.7515 50.729C44.3479 50.321 43.69 50.3177 43.282 50.7213C42.874 51.1253 42.8708 51.7831 43.2743 52.1911L47.7239 56.6868C47.7465 56.7151 47.7708 56.7422 47.7967 56.7681C48.4182 57.3896 48.4182 58.4013 47.7967 59.0228C47.1748 59.6443 46.1631 59.6439 45.5416 59.0224L43.0754 56.5303C42.6714 56.1223 42.0136 56.1187 41.6056 56.5226C41.1976 56.9262 41.1943 57.5841 41.5979 57.9921L43.9953 60.4142C44.018 60.4425 44.0422 60.47 44.0685 60.4958C44.69 61.1173 44.69 62.129 44.0685 62.7505C43.447 63.3724 42.4357 63.372 41.8142 62.7505C41.7618 62.6982 41.7027 62.6546 41.6434 62.611L41.6108 62.5869C41.6 62.5789 41.5892 62.5707 41.5785 62.5625C41.5105 62.5108 41.4927 62.4748 41.5267 62.3923C41.5438 62.3506 41.5651 62.311 41.5864 62.2713C41.608 62.2313 41.6295 62.1911 41.6468 62.1489C41.6848 62.055 41.7155 61.9584 41.7455 61.8614C41.9048 61.3478 41.9517 60.7955 41.8801 60.2625C41.7426 59.2399 41.1802 58.3172 40.3278 57.7333C39.8672 57.4183 39.3343 57.2116 38.7819 57.134C39.0496 55.9533 38.7281 54.6731 37.8919 53.7896C37.2037 53.0625 36.2741 52.6545 35.2741 52.6408C35.2377 52.6404 35.2013 52.6404 35.1645 52.6408C35.1868 51.6865 34.8398 50.7383 34.182 50.0432C33.4933 49.3162 32.5637 48.9082 31.5641 48.8944C31.2669 48.8904 30.9669 48.9219 30.6774 48.9886C30.5536 48.1277 30.1198 47.3312 29.4627 46.7614C28.8097 46.1961 27.9884 45.8823 27.1138 45.8702C26.193 45.8569 25.2885 46.1965 24.6047 46.814L20.5874 41.4008L30.1982 29.6922L33.2612 30.5301L29.2609 37.589C28.7773 38.4426 28.6552 39.4332 28.9168 40.3786C29.1784 41.3244 29.7922 42.1113 30.6458 42.5949C30.6992 42.6252 30.753 42.6539 30.8076 42.6814C30.8116 42.6835 30.8157 42.6855 30.8201 42.6875C30.9637 42.7591 31.1113 42.8205 31.2609 42.8723C31.9576 43.1137 32.7101 43.14 33.4359 42.9394C34.3813 42.6778 35.1682 42.0636 35.6518 41.2104L38.2514 36.6229L42.893 36.9521L55.253 49.3117C55.8741 49.9336 55.8741 50.9449 55.2526 51.5664ZM55.6833 46.8027L44.0883 35.2081C44.0665 35.1859 44.0434 35.1648 44.0196 35.145C43.8526 35.0059 43.6455 34.9218 43.4272 34.9064L37.7439 34.5033C37.3509 34.4762 36.9603 34.6853 36.7662 35.0278L33.8435 40.1857C33.6336 40.5561 33.292 40.8226 32.8815 40.9362C32.4715 41.0499 32.0413 40.9965 31.6705 40.7866C31.3001 40.5768 31.0336 40.2351 30.92 39.8247C30.8064 39.4142 30.8593 38.984 31.0696 38.6136L34.9713 31.7278L36.5523 31.2729C36.5576 31.2713 36.5627 31.2694 36.5679 31.2676L36.5782 31.2641L36.5834 31.2624L42.4842 29.5584H49.6139L58.5146 40.8732L55.6833 46.8027ZM59.8761 39.242L51.645 28.7727L55.8458 26.1011L63.5371 36.0916L59.8761 39.242ZM33.8912 25.5286C33.6251 25.5286 33.3591 25.4271 33.1561 25.2241L26.0572 18.1252C25.6512 17.7192 25.6512 17.0613 26.0572 16.6553C26.4631 16.2494 27.121 16.2494 27.527 16.6553L34.6259 23.7542C35.0319 24.1602 35.0319 24.8181 34.6259 25.2241C34.4229 25.4271 34.1569 25.5286 33.8912 25.5286ZM39.5001 25.5286C40.0739 25.5286 40.5393 25.0632 40.5393 24.4894V18.6145C40.5393 18.0407 40.0739 17.5753 39.5001 17.5753C38.9263 17.5753 38.4609 18.0407 38.4609 18.6145V24.4894C38.4609 25.0632 38.9263 25.5286 39.5001 25.5286Z" fill="#9297A9"/>
</svg>
