<svg width="72" height="72" viewBox="0 0 72 72" fill="none" xmlns="http://www.w3.org/2000/svg">
<path d="M18.306 46.7914C18.306 51.8332 14.2096 55.9296 9.1679 55.9296C6.8151 55.9296 4.67236 55.0473 3.05481 53.5768C1.20618 51.8962 0.0507812 49.4804 0.0507812 46.7914C0.0507812 44.1025 1.20618 41.6867 3.07582 40.0061C4.69337 38.5356 6.83611 37.6533 9.18891 37.6533C14.2306 37.6533 18.306 41.7497 18.306 46.7914Z" fill="#D3D5DD"/>
<path d="M53.1758 46.7915C53.1758 51.8752 57.2932 55.9926 62.3769 55.9926C64.7507 55.9926 66.8935 55.0893 68.532 53.6188C70.4017 51.9382 71.5781 49.5014 71.5781 46.7915C71.5781 44.0816 70.4017 41.6447 68.532 39.9641C66.8935 38.4936 64.7507 37.5903 62.3769 37.5903C57.2932 37.5903 53.1758 41.7077 53.1758 46.7915Z" fill="#D3D5DD"/>
<path d="M40.9932 49.123H30.8047V64.7314H40.9932V49.123Z" stroke="#2F3343" stroke-width="1.78643" stroke-miterlimit="10"/>
<path d="M33.9971 24.7759H23.8086V30.931H33.9971V24.7759Z" stroke="#2F3343" stroke-width="1.78643" stroke-miterlimit="10"/>
<path d="M48.0088 24.7759H37.8203V30.931H48.0088V24.7759Z" stroke="#2F3343" stroke-width="1.78643" stroke-miterlimit="10"/>
<path d="M33.9971 14.6924H23.8086V20.8475H33.9971V14.6924Z" stroke="#2F3343" stroke-width="1.78643" stroke-miterlimit="10"/>
<path d="M48.0088 14.6924H37.8203V20.8475H48.0088V14.6924Z" stroke="#2F3343" stroke-width="1.78643" stroke-miterlimit="10"/>
<path d="M33.9971 35.1113H23.8086V41.2664H33.9971V35.1113Z" stroke="#2F3343" stroke-width="1.78643" stroke-miterlimit="10"/>
<path d="M48.0088 35.1113H37.8203V41.2664H48.0088V35.1113Z" stroke="#2F3343" stroke-width="1.78643" stroke-miterlimit="10"/>
<path d="M54.0168 6.62549H17.5273V64.7314H54.0168V6.62549Z" stroke="#2F3343" stroke-width="1.78643" stroke-miterlimit="10"/>
<path d="M17.5298 25.2378V64.7313H3.70703V52.8623C5.15653 54.1647 7.06818 54.963 9.1689 54.963C13.6854 54.963 17.3407 51.3077 17.3407 46.7912C17.3407 42.2746 13.6854 38.6194 9.1689 38.6194C7.06818 38.6194 5.13552 39.4177 3.70703 40.7201V25.2378H17.5298Z" stroke="#2F3343" stroke-width="1.78643" stroke-miterlimit="10"/>
<path d="M54.0195 25.2378V64.7313H67.8423V52.8623C66.3928 54.1647 64.4811 54.963 62.3804 54.963C57.8639 54.963 54.2086 51.3077 54.2086 46.7912C54.2086 42.2746 57.8639 38.6194 62.3804 38.6194C64.4811 38.6194 66.4138 39.4177 67.8423 40.7201V25.2378H54.0195Z" stroke="#2F3343" stroke-width="1.78643" stroke-miterlimit="10"/>
</svg>
