<svg width="72" height="72" viewBox="0 0 72 72" fill="none" xmlns="http://www.w3.org/2000/svg">
<path d="M18.306 46.7913C18.306 51.8331 14.2096 55.9295 9.1679 55.9295C6.8151 55.9295 4.67236 55.0472 3.05481 53.5767C1.20618 51.8961 0.0507812 49.4802 0.0507812 46.7913C0.0507812 44.1024 1.20618 41.6866 3.07582 40.006C4.69337 38.5355 6.83611 37.6532 9.18891 37.6532C14.2306 37.6532 18.306 41.7496 18.306 46.7913Z" fill="#D3D5DD"/>
<path d="M53.1777 46.7914C53.1777 51.8751 57.2951 55.9925 62.3789 55.9925C64.7527 55.9925 66.8954 55.0892 68.534 53.6187C70.4036 51.9381 71.58 49.5013 71.58 46.7914C71.58 44.0814 70.4036 41.6446 68.534 39.964C66.8954 38.4935 64.7527 37.5902 62.3789 37.5902C57.2951 37.5902 53.1777 41.7076 53.1777 46.7914Z" fill="#D3D5DD"/>
<path d="M40.9932 49.1232H30.8047V64.7315H40.9932V49.1232Z" stroke="#2F3343" stroke-width="1.78643" stroke-miterlimit="10"/>
<path d="M33.9981 24.7759H23.8096V30.931H33.9981V24.7759Z" stroke="#2F3343" stroke-width="1.78643" stroke-miterlimit="10"/>
<path d="M48.0098 24.7759H37.8213V30.931H48.0098V24.7759Z" stroke="#2F3343" stroke-width="1.78643" stroke-miterlimit="10"/>
<path d="M33.9981 14.6924H23.8096V20.8475H33.9981V14.6924Z" stroke="#2F3343" stroke-width="1.78643" stroke-miterlimit="10"/>
<path d="M48.0098 14.6924H37.8213V20.8475H48.0098V14.6924Z" stroke="#2F3343" stroke-width="1.78643" stroke-miterlimit="10"/>
<path d="M33.9981 35.1113H23.8096V41.2664H33.9981V35.1113Z" stroke="#2F3343" stroke-width="1.78643" stroke-miterlimit="10"/>
<path d="M48.0098 35.1113H37.8213V41.2664H48.0098V35.1113Z" stroke="#2F3343" stroke-width="1.78643" stroke-miterlimit="10"/>
<path d="M54.0178 6.62561H17.5283V64.7315H54.0178V6.62561Z" stroke="#2F3343" stroke-width="1.78643" stroke-miterlimit="10"/>
<path d="M17.5288 25.238V64.7316H3.70605V52.8625C5.15555 54.1649 7.06721 54.9632 9.16793 54.9632C13.6845 54.9632 17.3397 51.308 17.3397 46.7914C17.3397 42.2749 13.6845 38.6196 9.16793 38.6196C7.06721 38.6196 5.13454 39.4179 3.70605 40.7203V25.238H17.5288Z" stroke="#2F3343" stroke-width="1.78643" stroke-miterlimit="10"/>
<path d="M54.0176 25.238V64.7316H67.8403V52.8625C66.3908 54.1649 64.4792 54.9632 62.3784 54.9632C57.8619 54.9632 54.2066 51.308 54.2066 46.7914C54.2066 42.2749 57.8619 38.6196 62.3784 38.6196C64.4792 38.6196 66.4118 39.4179 67.8403 40.7203V25.238H54.0176Z" stroke="#2F3343" stroke-width="1.78643" stroke-miterlimit="10"/>
</svg>
