<svg width="80" height="80" viewBox="0 0 80 80" fill="none" xmlns="http://www.w3.org/2000/svg">
<path fill-rule="evenodd" clip-rule="evenodd" d="M39.551 15.4876C39.1171 15.5102 38.7059 15.2478 38.5409 14.8479C38.3545 14.3966 38.5134 13.8572 38.9234 13.5863C39.291 13.3433 39.781 13.3583 40.1324 13.6259C40.4769 13.888 40.6217 14.3566 40.4887 14.7678C40.356 15.1758 39.9796 15.4654 39.551 15.4876ZM45.1088 25.5286C45.3749 25.5286 45.641 25.4271 45.844 25.2241L52.9429 18.1252C53.3489 17.7192 53.3489 17.0613 52.9429 16.6553C52.5369 16.2494 51.879 16.2494 51.473 16.6553L44.3741 23.7542C43.9681 24.1602 43.9681 24.8181 44.3741 25.2241C44.5771 25.4271 44.8432 25.5286 45.1088 25.5286ZM65.7841 35.6036L56.9133 24.0802C56.5849 23.654 55.9861 23.5488 55.532 23.8376L49.8047 27.48H42.335C42.2383 27.48 42.1421 27.5006 42.0491 27.5277L36.2575 29.1949L30.2479 27.5512L24.4086 23.8376C23.9621 23.5537 23.3742 23.6499 23.0422 24.0616L13.2305 36.215C12.8779 36.6517 12.9361 37.2893 13.3615 37.6553L18.5041 42.081L23.1178 48.2984C21.7685 49.7359 21.7948 52.0031 23.1987 53.4074C23.821 54.0294 24.6124 54.3807 25.4263 54.4624C25.398 54.6468 25.3835 54.834 25.3835 55.0241C25.3835 56.005 25.7656 56.9274 26.4591 57.6209C27.1529 58.3147 28.0753 58.6969 29.0562 58.6969C29.0696 58.6969 29.0825 58.696 29.0955 58.6956L29.0947 58.7257L29.0942 58.7467C29.094 58.7546 29.0939 58.7625 29.0939 58.7704C29.0939 59.7514 29.476 60.6738 30.1694 61.3676C30.8633 62.0611 31.7857 62.4432 32.7666 62.4432C32.9603 62.4432 33.152 62.4275 33.34 62.3983C33.4197 63.2152 33.7719 64.0101 34.3962 64.6344C35.1119 65.3506 36.0525 65.7084 36.993 65.7084C37.9335 65.7084 38.8741 65.3506 39.5902 64.6344L40.1518 64.0728L40.3876 64.2628C41.0976 64.9507 42.0196 65.2944 42.9415 65.2944C43.882 65.2944 44.8226 64.9365 45.5383 64.2204C46.269 63.4897 46.6268 62.5253 46.6119 61.5658C47.571 61.5803 48.5358 61.2229 49.2665 60.4926C49.9963 59.7623 50.3542 58.7988 50.34 57.8396C51.3392 57.8554 52.287 57.4716 52.9942 56.7644C53.7249 56.0338 54.0828 55.0694 54.0678 54.1098C55.0278 54.1244 55.9917 53.7669 56.7224 53.0362C57.9695 51.7892 58.13 49.8616 57.2052 48.4387L60.5739 41.3835L65.6385 37.0253C66.057 36.665 66.1209 36.0407 65.7841 35.6036ZM24.0762 26.0894L28.275 28.7594L19.141 39.8873L15.4807 36.737L24.0762 26.0894ZM24.6686 49.6829L25.9358 48.4156C25.9742 48.3772 26.0147 48.3408 26.0559 48.3069C26.3038 48.1047 26.6038 47.9842 26.9216 47.9555C26.9275 47.9549 26.9336 47.9548 26.9396 47.9546L26.9487 47.9543C26.994 47.9506 27.0393 47.9482 27.085 47.9486C27.5193 47.9547 27.9228 48.1322 28.2221 48.448C28.8092 49.0687 28.7776 50.0828 28.1517 50.7088L26.9229 51.9376C26.3014 52.5591 25.2901 52.5591 24.6686 51.9376C24.0471 51.3157 24.0471 50.3044 24.6686 49.6829ZM27.9289 56.151C27.6277 55.8502 27.4619 55.4499 27.4619 55.0241C27.4619 54.5983 27.6277 54.198 27.9289 53.8967L30.3862 51.4394C30.8569 50.9688 31.5968 50.8398 32.1985 51.1265C32.8188 51.4221 33.1678 52.0953 33.0768 52.7726C33.0283 53.1341 32.86 53.4746 32.6021 53.733L30.1836 56.151C29.8824 56.4523 29.482 56.618 29.0562 56.618C28.6305 56.618 28.2301 56.4523 27.9289 56.151ZM31.6393 59.8974C31.338 59.5965 31.1723 59.1962 31.1723 58.7704C31.1723 58.3447 31.338 57.9443 31.6393 57.6431L34.0962 55.1858C34.5996 54.6828 35.4071 54.5744 36.0233 54.9331C36.5862 55.2606 36.881 55.9035 36.7843 56.5441C36.7314 56.8962 36.564 57.2274 36.312 57.4793L33.894 59.8974C33.5927 60.1986 33.1924 60.3644 32.7666 60.3644C32.3408 60.3644 31.9405 60.1986 31.6393 59.8974ZM35.8656 63.1646C35.2441 62.5431 35.2441 61.5318 35.8656 60.9103L37.1329 59.6431C37.1713 59.6046 37.2113 59.5686 37.2526 59.5347C37.2538 59.5339 37.2546 59.5331 37.2554 59.5323C37.4616 59.3649 37.7038 59.2528 37.9622 59.2039L37.9804 59.2015C38.0249 59.1934 38.0702 59.1869 38.1155 59.1829C38.1258 59.182 38.1362 59.1816 38.1466 59.1812L38.1469 59.1812C38.1547 59.1809 38.1626 59.1806 38.1705 59.1801L38.1849 59.1793C38.2172 59.1775 38.2493 59.1757 38.2821 59.176C38.716 59.1821 39.1199 59.3592 39.4191 59.6754C39.4559 59.7142 39.4903 59.7547 39.5218 59.7963C39.9998 60.421 39.9355 61.349 39.3423 61.9426L38.1199 63.165C37.4984 63.7865 36.4871 63.7861 35.8656 63.1646ZM55.2526 51.5664C54.6311 52.1883 53.6198 52.1879 52.9983 51.5664C52.9756 51.5438 52.9518 51.5227 52.9275 51.5029L46.2451 44.7501C45.8411 44.3421 45.1833 44.3389 44.7753 44.7429C44.3673 45.1464 44.364 45.8043 44.7676 46.2123L51.5224 53.0375L51.5248 53.0399C52.1463 53.6614 52.1463 54.6731 51.5248 55.2946C51.2236 55.5958 50.8232 55.7616 50.3975 55.7616C49.9713 55.7616 49.5709 55.5958 49.2701 55.2946L44.7514 50.729C44.3479 50.321 43.69 50.3177 43.282 50.7213C42.874 51.1253 42.8707 51.7831 43.2743 52.1911L47.7238 56.6868C47.7465 56.7151 47.7707 56.7422 47.7966 56.7681C48.4181 57.3896 48.4181 58.4013 47.7966 59.0228C47.1747 59.6443 46.163 59.6439 45.5415 59.0224L43.0753 56.5303C42.6714 56.1223 42.0135 56.1187 41.6055 56.5226C41.1975 56.9262 41.1943 57.5841 41.5978 57.9921L43.9953 60.4142C44.0179 60.4425 44.0422 60.47 44.0684 60.4958C44.6899 61.1173 44.6899 62.129 44.0684 62.7505C43.4469 63.3724 42.4356 63.372 41.8141 62.7505C41.7618 62.6982 41.7026 62.6546 41.6433 62.611L41.6107 62.5869C41.5999 62.5789 41.5891 62.5707 41.5784 62.5625C41.5105 62.5108 41.4927 62.4748 41.5266 62.3923C41.5437 62.3506 41.565 62.311 41.5864 62.2713C41.6079 62.2313 41.6295 62.1911 41.6467 62.1489C41.6848 62.055 41.7155 61.9584 41.7454 61.8614C41.9047 61.3478 41.9516 60.7955 41.8801 60.2625C41.7426 59.2399 41.1801 58.3172 40.3277 57.7333C39.8672 57.4183 39.3342 57.2116 38.7819 57.134C39.0496 55.9533 38.7281 54.6731 37.8919 53.7896C37.2037 53.0625 36.274 52.6545 35.2741 52.6408C35.2377 52.6404 35.2013 52.6404 35.1645 52.6408C35.1867 51.6865 34.8398 50.7383 34.1819 50.0432C33.4933 49.3162 32.5636 48.9082 31.5641 48.8944C31.2669 48.8904 30.9668 48.9219 30.6773 48.9886C30.5536 48.1277 30.1197 47.3312 29.4626 46.7614C28.8096 46.1961 27.9883 45.8823 27.1137 45.8702C26.193 45.8569 25.2884 46.1965 24.6047 46.814L20.5874 41.4008L30.1982 29.6922L33.2612 30.5301L29.2609 37.589C28.7772 38.4426 28.6551 39.4332 28.9167 40.3786C29.1784 41.3244 29.7922 42.1113 30.6458 42.5949C30.6992 42.6252 30.7529 42.6539 30.8075 42.6814C30.8116 42.6835 30.8156 42.6855 30.8201 42.6875C30.9636 42.7591 31.1112 42.8205 31.2608 42.8723C31.9575 43.1137 32.71 43.14 33.4359 42.9394C34.3812 42.6778 35.1681 42.0636 35.6517 41.2104L38.2513 36.6229L42.893 36.9521L55.253 49.3117C55.8741 49.9336 55.8741 50.9449 55.2526 51.5664ZM55.6832 46.8027L44.0883 35.2081C44.0664 35.1859 44.0434 35.1648 44.0195 35.145C43.8525 35.0059 43.6455 34.9218 43.4271 34.9064L37.7439 34.5033C37.3508 34.4762 36.9602 34.6853 36.7661 35.0278L33.8434 40.1857C33.6336 40.5561 33.2919 40.8226 32.8815 40.9362C32.4715 41.0499 32.0412 40.9965 31.6704 40.7866C31.3 40.5768 31.0336 40.2351 30.9199 39.8247C30.8063 39.4142 30.8593 38.984 31.0695 38.6136L34.9712 31.7278L36.5522 31.2729C36.5575 31.2713 36.5626 31.2694 36.5678 31.2676L36.5781 31.2641L36.5834 31.2624L42.4842 29.5584H49.6138L58.5145 40.8732L55.6832 46.8027ZM59.876 39.242L51.6449 28.7727L55.8458 26.1011L63.5371 36.0916L59.876 39.242ZM33.8911 25.5286C33.6251 25.5286 33.359 25.4271 33.156 25.2241L26.0571 18.1252C25.6511 17.7192 25.6511 17.0613 26.0571 16.6553C26.4631 16.2494 27.121 16.2494 27.5269 16.6553L34.6259 23.7542C35.0318 24.1602 35.0318 24.8181 34.6259 25.2241C34.4229 25.4271 34.1568 25.5286 33.8911 25.5286ZM39.5 25.5286C40.0738 25.5286 40.5392 25.0632 40.5392 24.4894V18.6145C40.5392 18.0407 40.0738 17.5753 39.5 17.5753C38.9262 17.5753 38.4608 18.0407 38.4608 18.6145V24.4894C38.4608 25.0632 38.9262 25.5286 39.5 25.5286Z" fill="#9297A9"/>
</svg>
