<svg width="36" height="36" viewBox="0 0 36 36" fill="none" xmlns="http://www.w3.org/2000/svg">
<path d="M23.4007 18C23.4007 19.4321 22.8318 20.8057 21.8191 21.8183C20.8064 22.831 19.4329 23.4 18.0007 23.4C16.5685 23.4 15.195 22.831 14.1823 21.8183C13.1696 20.8057 12.6007 19.4321 12.6007 18C12.6007 17.6922 12.6331 17.3916 12.6889 17.1H10.8007V24.2946C10.8007 24.795 11.2057 25.2 11.7061 25.2H24.2971C24.5369 25.1995 24.7667 25.1039 24.9362 24.9341C25.1056 24.7644 25.2007 24.5344 25.2007 24.2946V17.1H23.3125C23.3683 17.3916 23.4007 17.6922 23.4007 18ZM18.0007 21.6C18.4736 21.5999 18.9418 21.5066 19.3786 21.3255C19.8155 21.1445 20.2124 20.8791 20.5467 20.5447C20.881 20.2102 21.1461 19.8132 21.3269 19.3762C21.5078 18.9393 21.6008 18.471 21.6007 17.9982C21.6006 17.5253 21.5073 17.0571 21.3263 16.6202C21.1452 16.1834 20.8798 15.7865 20.5454 15.4522C20.2109 15.1179 19.8139 14.8528 19.377 14.6719C18.9401 14.4911 18.4718 14.3981 17.9989 14.3982C17.0439 14.3984 16.1281 14.778 15.4529 15.4535C14.7778 16.129 14.3987 17.045 14.3989 18C14.3991 18.955 14.7788 19.8708 15.4542 20.5459C16.1297 21.2211 17.0457 21.6002 18.0007 21.6ZM22.3207 14.22H24.4789C24.6223 14.22 24.7598 14.1631 24.8614 14.0619C24.9629 13.9607 25.0202 13.8234 25.0207 13.68V11.5218C25.0207 11.3781 24.9636 11.2403 24.862 11.1387C24.7604 11.0371 24.6226 10.98 24.4789 10.98H22.3207C22.177 10.98 22.0392 11.0371 21.9376 11.1387C21.836 11.2403 21.7789 11.3781 21.7789 11.5218V13.68C21.7807 13.977 22.0237 14.22 22.3207 14.22ZM18.0007 0.719971C13.4178 0.719971 9.02253 2.54054 5.7819 5.78117C2.54127 9.02179 0.720703 13.417 0.720703 18C0.720703 22.5829 2.54127 26.9781 5.7819 30.2188C9.02253 33.4594 13.4178 35.28 18.0007 35.28C20.2699 35.28 22.517 34.833 24.6135 33.9646C26.71 33.0962 28.6149 31.8234 30.2195 30.2188C31.8241 28.6142 33.0969 26.7092 33.9653 24.6127C34.8337 22.5162 35.2807 20.2692 35.2807 18C35.2807 15.7307 34.8337 13.4837 33.9653 11.3872C33.0969 9.29069 31.8241 7.38576 30.2195 5.78117C28.6149 4.17657 26.71 2.90373 24.6135 2.03533C22.517 1.16693 20.2699 0.719971 18.0007 0.719971ZM27.0007 25.0002C27.0007 26.1 26.1007 27 25.0009 27H11.0005C9.9007 27 9.0007 26.1 9.0007 25.0002V10.9998C9.0007 9.89997 9.9007 8.99997 11.0005 8.99997H25.0009C26.1007 8.99997 27.0007 9.89997 27.0007 10.9998V25.0002Z" fill="#962947"/>
</svg>
