<svg width="144" height="64" viewBox="0 0 144 64" fill="none" xmlns="http://www.w3.org/2000/svg">
<g clip-path="url(#clip0)">
<path d="M2.90787 61.8925L0 53.4639H1.02987L3.39251 60.416L5.634 53.4639H6.42155L8.66303 60.416L11.0257 53.4639H11.995L9.08709 61.831H8.29954L6.05806 55.0635L3.81658 61.831H2.90787V61.8925Z" fill="white"/>
<path d="M14.2954 59.124C14.3559 59.7392 14.5983 60.2314 15.0223 60.6005C15.4464 60.9697 15.931 61.1543 16.4763 61.1543C17.2032 61.1543 17.809 60.8466 18.4148 60.2929L18.9601 60.7851C18.2937 61.5849 17.4456 61.9541 16.4763 61.9541C15.6281 61.9541 14.9012 61.6464 14.3559 61.0312C13.7501 60.416 13.5078 59.6777 13.5078 58.6933C13.5078 57.7705 13.8107 57.0322 14.3559 56.417C14.9012 55.8018 15.6281 55.4941 16.4157 55.4941C17.2638 55.4941 17.9908 55.8018 18.4754 56.417C18.9601 57.0322 19.263 57.832 19.263 58.7549C19.263 58.8779 19.263 59.001 19.263 59.0625H14.2954V59.124ZM14.2954 58.3857H18.1725C18.1119 57.7705 17.9302 57.2783 17.5667 56.9092C17.2638 56.54 16.7792 56.2939 16.2339 56.2939C15.6887 56.2939 15.2647 56.4785 14.9012 56.8476C14.5377 57.2783 14.3559 57.7705 14.2954 58.3857Z" fill="white"/>
<path d="M28.8356 61.954C28.048 61.954 27.3816 61.6464 26.8364 61.0927C26.2306 60.539 25.9883 59.7392 25.9883 58.7548C25.9883 57.7705 26.2912 57.0322 26.8364 56.417C27.4422 55.8017 28.1086 55.5556 28.8356 55.5556C29.8049 55.5556 30.5318 55.9863 31.1376 56.8476V53.4639H32.0463V61.831H31.1376V60.6005C30.5318 61.4619 29.8049 61.954 28.8356 61.954ZM29.0173 61.1542C29.6231 61.1542 30.1078 60.9081 30.5318 60.4775C30.9559 60.0468 31.1982 59.4316 31.1982 58.7548C31.1982 58.0781 30.9559 57.5244 30.5318 57.0322C30.1078 56.6015 29.5625 56.3554 29.0173 56.3554C28.4115 56.3554 27.9269 56.6015 27.5028 57.0322C27.0787 57.4629 26.897 58.0166 26.897 58.7548C26.897 59.4316 27.0787 60.0468 27.5028 60.4775C27.9269 60.9081 28.4115 61.1542 29.0173 61.1542Z" fill="white"/>
<path d="M40.1651 61.0312C39.5593 61.6464 38.7718 61.954 37.9236 61.954C37.0149 61.954 36.288 61.6464 35.6821 61.0312C35.0763 60.416 34.7734 59.6162 34.7734 58.7549C34.7734 57.8935 35.0763 57.0937 35.6821 56.4785C36.288 55.8633 37.0149 55.5557 37.9236 55.5557C38.8323 55.5557 39.5593 55.8633 40.1651 56.4785C40.7709 57.0937 41.0738 57.832 41.0738 58.7549C41.0738 59.6162 40.7709 60.3545 40.1651 61.0312ZM37.9236 61.1543C38.59 61.1543 39.1352 60.9082 39.4987 60.4775C39.9228 60.0468 40.1045 59.4316 40.1045 58.7549C40.1045 58.0781 39.8622 57.5244 39.4381 57.0322C39.0141 56.54 38.4689 56.3555 37.863 56.3555C37.1967 56.3555 36.712 56.6016 36.288 57.0322C35.8639 57.5244 35.6821 58.0781 35.6821 58.7549C35.6821 59.4316 35.9245 59.9853 36.3485 60.4775C36.7726 60.9082 37.3178 61.1543 37.9236 61.1543Z" fill="white"/>
<path d="M48.4648 61.831V53.4639H49.3736L52.342 58.0166L55.3105 53.4639H56.3403V61.7695H55.4316V55.0019L52.4632 59.4931H52.4026L49.4341 55.0635V61.7695H48.4648V61.831Z" fill="white"/>
<path d="M59.793 61.831V53.4639H60.7017V61.7695H59.793V61.831Z" fill="white"/>
<path d="M67.9124 61.954C66.7614 61.954 65.7315 61.5234 64.944 60.7236C64.1564 59.9238 63.793 58.8779 63.793 57.6474C63.793 56.4785 64.217 55.4326 65.0046 54.5713C65.7921 53.71 66.7614 53.3408 67.973 53.3408C68.6394 53.3408 69.2452 53.4639 69.7299 53.71C70.2145 53.9561 70.6992 54.2637 71.1232 54.6943L70.5174 55.3711C69.7299 54.6328 68.8817 54.2021 67.9124 54.2021C67.0037 54.2021 66.2768 54.5098 65.671 55.1865C65.0652 55.8633 64.7623 56.6631 64.7623 57.6474C64.7623 58.6318 65.0652 59.4316 65.671 60.1083C66.2768 60.7851 67.0037 61.0927 67.9124 61.0927C68.4577 61.0927 68.9423 60.9697 69.3058 60.7851C69.7299 60.6005 70.1539 60.2929 70.578 59.8623L71.1838 60.539C70.6992 61.0312 70.2145 61.3388 69.7299 61.5849C69.2452 61.831 68.6394 61.954 67.9124 61.954Z" fill="white"/>
<path d="M73.9102 61.831V53.4639H79.8471V54.3252H74.8189V57.2168H79.3018V58.0781H74.8189V60.9697H79.9076V61.831H73.9102Z" fill="white"/>
<path d="M82.5117 61.831V60.6006H83.6022V61.831H82.5117Z" fill="white"/>
<path d="M95.1097 61.954C93.8376 61.954 92.8683 61.5234 92.0807 60.7236C91.2932 59.9238 90.9297 58.8779 90.9297 57.6474C90.9297 56.4785 91.2932 55.4326 92.0807 54.6328C92.8683 53.7715 93.8375 53.3408 95.0492 53.3408C95.7155 53.3408 96.2608 53.4023 96.7454 53.5869C97.2301 53.7715 97.6541 54.0176 98.1388 54.4482L97.533 55.1865C96.806 54.5713 95.9579 54.2637 95.0492 54.2637C94.1405 54.2637 93.4135 54.5713 92.8077 55.248C92.2019 55.9248 91.899 56.7246 91.899 57.709C91.899 58.6933 92.2019 59.5546 92.8077 60.1699C93.4135 60.8466 94.201 61.1542 95.1703 61.1542C96.079 61.1542 96.8666 60.8466 97.533 60.2929V58.2011H95.0492V57.3398H98.4417V60.6621C97.4118 61.5234 96.3214 61.954 95.1097 61.954Z" fill="white"/>
<path d="M101.473 61.831V53.4639H102.381V61.831H101.473Z" fill="white"/>
<path d="M110.56 61.0312C109.954 61.6464 109.166 61.954 108.318 61.954C107.47 61.954 106.682 61.6464 106.077 61.0312C105.471 60.416 105.168 59.6162 105.168 58.7549C105.168 57.8935 105.471 57.0937 106.077 56.4785C106.682 55.8633 107.409 55.5557 108.318 55.5557C109.227 55.5557 109.954 55.8633 110.56 56.4785C111.165 57.0937 111.468 57.832 111.468 58.7549C111.468 59.6162 111.165 60.3545 110.56 61.0312ZM108.318 61.1543C108.985 61.1543 109.53 60.9082 109.893 60.4775C110.317 60.0468 110.499 59.4316 110.499 58.7549C110.499 58.0781 110.257 57.5244 109.833 57.0322C109.409 56.54 108.863 56.3555 108.258 56.3555C107.591 56.3555 107.107 56.6016 106.682 57.0322C106.258 57.5244 106.077 58.0781 106.077 58.7549C106.077 59.4316 106.319 59.9853 106.743 60.4775C107.107 60.9082 107.652 61.1543 108.318 61.1543Z" fill="white"/>
<path d="M117.347 61.954C116.378 61.954 115.591 61.5234 115.045 60.6621V61.831H114.137V53.4639H115.045V56.9092C115.651 55.9863 116.439 55.5556 117.347 55.5556C118.135 55.5556 118.801 55.8633 119.347 56.417C119.952 56.9707 120.195 57.7705 120.195 58.7548C120.195 59.7392 119.892 60.4775 119.347 61.0927C118.801 61.6464 118.135 61.954 117.347 61.954ZM117.166 61.1542C117.772 61.1542 118.256 60.9081 118.68 60.4775C119.104 60.0468 119.286 59.4931 119.286 58.7548C119.286 58.0781 119.104 57.4629 118.68 57.0322C118.256 56.6015 117.772 56.3554 117.166 56.3554C116.56 56.3554 116.075 56.6015 115.651 57.0322C115.227 57.4629 114.985 58.0781 114.985 58.7548C114.985 59.4316 115.227 59.9853 115.651 60.4775C116.075 60.9081 116.621 61.1542 117.166 61.1542Z" fill="white"/>
<path d="M124.796 61.954C124.19 61.954 123.645 61.7695 123.221 61.4619C122.797 61.0927 122.555 60.6621 122.555 60.0468C122.555 59.4316 122.797 58.8779 123.282 58.5703C123.766 58.2011 124.372 58.0166 125.16 58.0166C125.765 58.0166 126.432 58.0781 127.038 58.2627V58.0781C127.038 57.5244 126.856 57.1553 126.553 56.8476C126.25 56.54 125.826 56.417 125.22 56.417C124.614 56.417 124.009 56.54 123.403 56.8476L123.16 56.1094C123.887 55.7402 124.614 55.5557 125.341 55.5557C126.19 55.5557 126.856 55.8018 127.28 56.2324C127.704 56.6631 127.886 57.2783 127.886 58.0166V61.7695H126.977V60.9082C126.432 61.5849 125.705 61.954 124.796 61.954ZM124.917 61.2158C125.463 61.2158 125.947 61.0312 126.371 60.7236C126.795 60.416 126.977 60.0468 126.977 59.5547V59.0009C126.371 58.8164 125.765 58.7549 125.22 58.7549C124.675 58.7549 124.251 58.8779 123.948 59.124C123.645 59.3701 123.463 59.6777 123.463 60.0468C123.463 60.416 123.585 60.7236 123.887 60.9697C124.13 61.0927 124.493 61.2158 124.917 61.2158Z" fill="white"/>
<path d="M130.914 61.831V53.4639H131.823V61.831H130.914Z" fill="white"/>
<path d="M134.73 61.831V53.4639H135.639V61.831H134.73Z" fill="white"/>
<path d="M139.456 63.7382C139.032 63.7382 138.608 63.6152 138.184 63.4306L138.487 62.6923C138.79 62.8154 139.092 62.9384 139.456 62.9384C139.759 62.9384 139.941 62.8769 140.122 62.6923C140.304 62.5078 140.486 62.2001 140.668 61.7695L137.941 55.6172H138.911L141.092 60.7236L143.03 55.6172H143.999L141.455 61.954C141.213 62.5693 140.91 62.9999 140.607 63.3076C140.243 63.6152 139.88 63.7382 139.456 63.7382Z" fill="white"/>
<path fill-rule="evenodd" clip-rule="evenodd" d="M126.672 28.1777V30.6387H119.947V40.7899H116.01V30.6387H109.285V28.1777H126.672Z" fill="white"/>
<path fill-rule="evenodd" clip-rule="evenodd" d="M102.199 40.7899H105.531H106.137V28.1777H102.199V28.5469V40.7899Z" fill="white"/>
<path d="M16.175 23.1943C15.5086 21.8408 14.1759 20.9795 12.6614 20.9795H12.6008C11.1468 20.9795 9.75348 21.7793 9.08709 23.1328L0 40.7899H4.42239L7.02735 35.6835H17.8107L20.2945 40.7899H24.8381L16.175 23.1943ZM8.05722 33.8993L12.6614 25.04L17.0232 33.8993H8.05722Z" fill="white"/>
<path d="M41.5573 30.3926C41.2544 29.1006 40.1034 28.1162 38.71 28.1162H30.1681C29.8652 28.1162 29.5623 28.1777 29.32 28.2393C28.169 28.4853 27.1997 29.3467 26.715 30.3926C26.4727 30.8847 26.3516 31.4385 26.3516 31.9922V36.914C26.3516 37.4677 26.4727 38.0214 26.715 38.5136C27.1997 39.5595 28.169 40.4208 29.32 40.6669C29.6229 40.7284 29.8652 40.7899 30.1681 40.7899H37.8619V44.7889H41.6785V31.1308C41.6785 30.8847 41.6179 30.6387 41.5573 30.3926ZM37.8619 38.5751H31.6827C30.4105 38.5751 29.32 37.5292 29.32 36.1757V32.8535C29.32 31.5615 30.3499 30.4541 31.6827 30.4541H37.8619V38.5751Z" fill="white"/>
<path d="M100.686 28.1777L94.0224 39.3134C93.4772 40.2978 92.4473 40.8515 91.3569 40.8515C90.2664 40.8515 89.2366 40.2978 88.6913 39.3134L81.7852 28.1777H85.9046L91.3569 37.2216L96.6274 28.1777H100.686Z" fill="white"/>
<path d="M61.3664 28.1777V37.8368C61.3664 38.0829 61.3058 38.329 61.2452 38.5751C61.0029 39.6825 60.0942 40.6054 58.9431 40.7899C58.7614 40.8515 58.5797 40.8515 58.3979 40.8515H48.2809C48.0992 40.8515 47.9175 40.8515 47.7357 40.7899C46.5847 40.6054 45.676 39.6825 45.4337 38.5751C45.3731 38.329 45.3125 38.0829 45.3125 37.8368V28.1777H49.0685V37.1601C49.0685 37.9599 49.6743 38.5751 50.4619 38.5751H56.1564C56.944 38.5751 57.5498 37.9599 57.5498 37.1601V28.1777H61.3664Z" fill="white"/>
<path d="M79.8465 30.3926C79.2407 29.0391 77.9079 28.1162 76.3934 28.1162H65.7312V30.3926H76.3934V33.4072H67.3669C66.1553 33.4072 65.0648 34.207 64.6408 35.3144C64.5196 35.6835 64.3984 36.0527 64.3984 36.4218V37.7753C64.3984 38.0214 64.459 38.2675 64.5196 38.5136C64.8225 39.8056 65.9735 40.7899 67.3669 40.7899H80.1494V31.9922C80.21 31.4385 80.0888 30.8847 79.8465 30.3926ZM76.3934 38.5751H69.7901C69.6689 38.5751 69.6084 38.5751 69.4872 38.5751C68.7602 38.4521 68.215 37.7753 68.215 36.9755C68.215 36.2988 68.6391 35.7451 69.1843 35.499C69.366 35.4374 69.5478 35.3759 69.7901 35.3759H76.3934V38.5751Z" fill="white"/>
<path d="M143.639 30.3926C143.034 29.0391 141.701 28.1162 140.186 28.1162H129.524V30.3926H140.186V33.4072H131.16C129.948 33.4072 128.858 34.207 128.434 35.3144C128.313 35.6835 128.191 36.0527 128.191 36.4218V37.7753C128.191 38.0214 128.252 38.2675 128.313 38.5136C128.615 39.8056 129.766 40.7899 131.16 40.7899H143.942V31.9922C144.003 31.4385 143.882 30.8847 143.639 30.3926ZM140.186 38.5751H133.583C133.462 38.5751 133.401 38.5751 133.28 38.5751C132.553 38.4521 132.008 37.7753 132.008 36.9755C132.008 36.2988 132.432 35.7451 132.977 35.499C133.159 35.4374 133.341 35.3759 133.583 35.3759H140.186V38.5751Z" fill="white"/>
<rect x="83.1836" y="2.79297" width="51.9894" height="9.59803" fill="white"/>
<path fill-rule="evenodd" clip-rule="evenodd" d="M72.0898 15.5038H138.486L143.999 0H77.6027L72.0898 15.5038ZM87.3544 3.56833V11.7509H93.5336V10.1513H89.1112V8.42864H92.9278V6.82905H89.1112V5.16793H93.473V3.56833H87.3544ZM98.199 11.8739L94.9277 3.56832H96.9268L99.0472 9.35148L101.167 3.56832H103.106L99.8347 11.8739H98.199ZM104.742 3.56832V11.7509H110.922V10.1513H106.499V8.42864H110.316V6.82904H106.499V5.16792H110.861V3.56832H104.742ZM112.982 11.8124V3.56832H114.618L118.434 8.67473V3.56832H120.191V11.8124H118.677L114.739 6.58295V11.8124H112.982ZM124.493 5.29097V11.8124H126.25V5.22944H128.734V3.56832H122.009V5.29097H124.493Z" fill="#721F36"/>
</g>
<defs>
<clipPath id="clip0">
<rect width="144" height="64" fill="white"/>
</clipPath>
</defs>
</svg>
