<svg width="27" height="27" viewBox="0 0 27 27" fill="none" xmlns="http://www.w3.org/2000/svg">
<path d="M26.0857 3.10297L26.0428 3.07622L20.6308 0.409912L14.7893 8.19847L17.4768 11.782C17.3964 13.1335 16.8233 14.4086 15.866 15.3659C14.9087 16.3232 13.6336 16.8963 12.2822 16.9767L8.69866 14.2892L0.910156 20.1305L3.55428 25.4973L3.57653 25.5426L3.60334 25.5854C3.74445 25.8127 3.94139 26.0002 4.17543 26.1299C4.40948 26.2596 4.67282 26.3273 4.94041 26.3264H6.33691C9.02766 26.3264 11.6921 25.7964 14.178 24.7667C16.6639 23.737 18.9227 22.2277 20.8254 20.3251C22.728 18.4224 24.2373 16.1636 25.267 13.6777C26.2967 11.1918 26.8267 8.52736 26.8267 5.8366V4.44004C26.8275 4.17246 26.7599 3.90911 26.6302 3.67507C26.5005 3.44103 26.313 3.24408 26.0857 3.10297ZM24.8267 5.8366C24.8267 16.0319 16.5322 24.3264 6.33691 24.3264H5.20691L3.43778 20.735L8.69903 16.789L11.6282 18.9858H11.9615C13.9566 18.9836 15.8693 18.1901 17.28 16.7794C18.6908 15.3686 19.4843 13.4559 19.4865 11.4608V11.1275L17.2897 8.19841L21.2352 2.93747L24.8267 4.70691V5.8366Z" fill="#9297A9"/>
</svg>
