<svg width="72" height="72" viewBox="0 0 72 72" fill="none" xmlns="http://www.w3.org/2000/svg">
<path d="M61.6852 31.8761C60.2988 33.3676 57.7359 33.3886 55.7822 31.8761C53.8285 30.3426 53.1983 27.8217 54.2487 26.0781L49.5431 22.4019L41.0352 33.6407V61.3912L44.6484 64.2272L66.3908 35.5524L61.6852 31.8761Z" fill="#D3D5DD"/>
<path d="M46.2031 30.4688L48.0097 31.8762" stroke="white" stroke-width="2.55595" stroke-miterlimit="10"/>
<path d="M49.1016 32.7163L50.9082 34.1028" stroke="white" stroke-width="2.55595" stroke-miterlimit="10"/>
<path d="M52 34.9644L53.8066 36.3508" stroke="white" stroke-width="2.55595" stroke-miterlimit="10"/>
<path d="M54.8984 37.2119L56.7261 38.5984" stroke="white" stroke-width="2.55595" stroke-miterlimit="10"/>
<path d="M57.8203 39.439L59.6269 40.8464" stroke="white" stroke-width="2.55595" stroke-miterlimit="10"/>
<path d="M57.8398 39.418L59.6675 40.8255" stroke="white" stroke-width="2.55595" stroke-miterlimit="10"/>
<path d="M40.4269 16.373H5.99609V63.8073H40.4269V16.373Z" stroke="#2F3343" stroke-width="1.78643" stroke-miterlimit="10"/>
<path d="M34.818 16.6462V7.97021L5.99609 16.3731" stroke="#2F3343" stroke-width="1.78643" stroke-miterlimit="10"/>
<path d="M23.3247 43.8715C28.9168 43.8715 33.4502 39.3382 33.4502 33.7461C33.4502 28.1539 28.9168 23.6206 23.3247 23.6206C17.7325 23.6206 13.1992 28.1539 13.1992 33.7461C13.1992 39.3382 17.7325 43.8715 23.3247 43.8715Z" stroke="#2F3343" stroke-width="1.78643" stroke-miterlimit="10"/>
<path d="M23.3247 37.4854C28.9168 37.4854 33.4502 35.8113 33.4502 33.7461C33.4502 31.681 28.9168 30.0068 23.3247 30.0068C17.7325 30.0068 13.1992 31.681 13.1992 33.7461C13.1992 35.8113 17.7325 37.4854 23.3247 37.4854Z" stroke="#2F3343" stroke-width="1.78643" stroke-miterlimit="10"/>
<path d="M23.3252 43.8715C25.3904 43.8715 27.0645 39.3382 27.0645 33.7461C27.0645 28.1539 25.3904 23.6206 23.3252 23.6206C21.2601 23.6206 19.5859 28.1539 19.5859 33.7461C19.5859 39.3382 21.2601 43.8715 23.3252 43.8715Z" stroke="#2F3343" stroke-width="1.78643" stroke-miterlimit="10"/>
<path d="M14.4805 52.1694H32.0005" stroke="#2F3343" stroke-width="1.78643" stroke-miterlimit="10"/>
<path d="M14.4805 56.3496H32.0005" stroke="#2F3343" stroke-width="1.78643" stroke-miterlimit="10"/>
</svg>
